<svg xmlns="http://www.w3.org/2000/svg" xmlns:xlink="http://www.w3.org/1999/xlink" width="500" zoomAndPan="magnify" viewBox="0 0 375 374.999991" height="500" preserveAspectRatio="xMidYMid meet" version="1.0"><defs><clipPath id="f63093e7c2"><path d="M 2.480469 5.34375 L 372.230469 5.34375 L 372.230469 369.84375 L 2.480469 369.84375 Z M 2.480469 5.34375 " clip-rule="nonzero"/></clipPath></defs><path fill="#000000" d="M 101.859375 60.070312 L 78.015625 83.949219 L 69.726562 75.648438 C 67.664062 73.585938 64.324219 73.585938 62.261719 75.648438 C 60.199219 77.714844 60.199219 81.0625 62.261719 83.125 L 74.28125 95.160156 C 75.3125 96.195312 76.664062 96.710938 78.015625 96.710938 C 79.367188 96.710938 80.71875 96.195312 81.75 95.160156 L 88.914062 87.988281 L 88.914062 99.417969 L 47.757812 99.417969 L 47.757812 58.207031 L 89.683594 58.207031 C 90.609375 59.730469 92.28125 60.746094 94.191406 60.746094 C 97.109375 60.746094 99.472656 58.378906 99.472656 55.460938 L 99.472656 52.921875 C 99.472656 50.003906 97.109375 47.636719 94.191406 47.636719 L 42.476562 47.636719 C 39.5625 47.636719 37.195312 50.003906 37.195312 52.921875 L 37.195312 104.707031 C 37.195312 107.625 39.5625 109.992188 42.476562 109.992188 L 94.191406 109.992188 C 97.109375 109.992188 99.472656 107.625 99.472656 104.707031 L 99.472656 77.617188 C 99.472656 77.550781 99.46875 77.484375 99.46875 77.421875 L 109.324219 67.550781 C 111.386719 65.484375 111.386719 62.136719 109.324219 60.074219 C 107.265625 58.007812 103.921875 58.007812 101.859375 60.070312 Z M 101.859375 60.070312 " fill-opacity="1" fill-rule="nonzero"/><path fill="#000000" d="M 128.074219 69.574219 L 221.503906 69.574219 C 224.417969 69.574219 226.78125 67.207031 226.78125 64.289062 C 226.78125 61.367188 224.417969 59 221.503906 59 L 128.074219 59 C 125.160156 59 122.796875 61.367188 122.796875 64.289062 C 122.796875 67.207031 125.160156 69.574219 128.074219 69.574219 Z M 128.074219 69.574219 " fill-opacity="1" fill-rule="nonzero"/><path fill="#000000" d="M 128.074219 98.625 L 221.503906 98.625 C 224.417969 98.625 226.78125 96.257812 226.78125 93.339844 C 226.78125 90.417969 224.417969 88.050781 221.503906 88.050781 L 128.074219 88.050781 C 125.160156 88.050781 122.796875 90.417969 122.796875 93.339844 C 122.796875 96.257812 125.160156 98.625 128.074219 98.625 Z M 128.074219 98.625 " fill-opacity="1" fill-rule="nonzero"/><path fill="#000000" d="M 101.859375 150.019531 L 78.015625 173.894531 L 69.726562 165.59375 C 67.664062 163.53125 64.324219 163.53125 62.261719 165.59375 C 60.199219 167.660156 60.199219 171.007812 62.261719 173.070312 L 74.28125 185.105469 C 75.3125 186.140625 76.664062 186.65625 78.015625 186.65625 C 79.367188 186.65625 80.71875 186.140625 81.75 185.105469 L 88.914062 177.933594 L 88.914062 189.363281 L 47.757812 189.363281 L 47.757812 148.152344 L 89.683594 148.152344 C 90.609375 149.675781 92.28125 150.691406 94.191406 150.691406 C 97.109375 150.691406 99.472656 148.324219 99.472656 145.40625 L 99.472656 142.867188 C 99.472656 139.949219 97.109375 137.582031 94.191406 137.582031 L 42.476562 137.582031 C 39.5625 137.582031 37.195312 139.949219 37.195312 142.867188 L 37.195312 194.652344 C 37.195312 197.570312 39.5625 199.9375 42.476562 199.9375 L 94.191406 199.9375 C 97.109375 199.9375 99.472656 197.570312 99.472656 194.652344 L 99.472656 167.5625 C 99.472656 167.496094 99.46875 167.429688 99.46875 167.367188 L 109.324219 157.496094 C 111.386719 155.429688 111.386719 152.082031 109.324219 150.019531 C 107.265625 147.953125 103.921875 147.953125 101.859375 150.019531 Z M 101.859375 150.019531 " fill-opacity="1" fill-rule="nonzero"/><path fill="#000000" d="M 128.074219 159.519531 L 221.503906 159.519531 C 224.417969 159.519531 226.78125 157.15625 226.78125 154.234375 C 226.78125 151.316406 224.417969 148.949219 221.503906 148.949219 L 128.074219 148.949219 C 125.160156 148.949219 122.796875 151.316406 122.796875 154.234375 C 122.796875 157.15625 125.160156 159.519531 128.074219 159.519531 Z M 128.074219 159.519531 " fill-opacity="1" fill-rule="nonzero"/><path fill="#000000" d="M 128.074219 188.570312 L 221.503906 188.570312 C 224.417969 188.570312 226.78125 186.203125 226.78125 183.285156 C 226.78125 180.363281 224.417969 177.996094 221.503906 177.996094 L 128.074219 177.996094 C 125.160156 177.996094 122.796875 180.363281 122.796875 183.285156 C 122.796875 186.203125 125.160156 188.570312 128.074219 188.570312 Z M 128.074219 188.570312 " fill-opacity="1" fill-rule="nonzero"/><path fill="#000000" d="M 101.859375 239.964844 L 78.015625 263.839844 L 69.726562 255.539062 C 67.664062 253.476562 64.324219 253.476562 62.261719 255.539062 C 60.199219 257.605469 60.199219 260.953125 62.261719 263.015625 L 74.28125 275.054688 C 75.273438 276.046875 76.617188 276.601562 78.015625 276.601562 C 79.417969 276.601562 80.757812 276.042969 81.75 275.054688 L 88.914062 267.878906 L 88.914062 279.3125 L 47.757812 279.3125 L 47.757812 238.101562 L 89.683594 238.101562 C 90.609375 239.621094 92.28125 240.636719 94.191406 240.636719 C 97.109375 240.636719 99.472656 238.269531 99.472656 235.351562 L 99.472656 232.8125 C 99.472656 229.894531 97.109375 227.527344 94.191406 227.527344 L 42.476562 227.527344 C 39.5625 227.527344 37.195312 229.894531 37.195312 232.8125 L 37.195312 284.597656 C 37.195312 287.519531 39.5625 289.882812 42.476562 289.882812 L 94.191406 289.882812 C 97.109375 289.882812 99.472656 287.519531 99.472656 284.597656 L 99.472656 257.507812 C 99.472656 257.445312 99.46875 257.378906 99.46875 257.3125 L 109.324219 247.441406 C 111.386719 245.375 111.386719 242.027344 109.324219 239.964844 C 107.265625 237.898438 103.921875 237.898438 101.859375 239.964844 Z M 101.859375 239.964844 " fill-opacity="1" fill-rule="nonzero"/><path fill="#000000" d="M 128.074219 249.46875 L 221.503906 249.46875 C 224.417969 249.46875 226.78125 247.101562 226.78125 244.179688 C 226.78125 241.261719 224.417969 238.894531 221.503906 238.894531 L 128.074219 238.894531 C 125.160156 238.894531 122.796875 241.261719 122.796875 244.179688 C 122.796875 247.101562 125.160156 249.46875 128.074219 249.46875 Z M 128.074219 249.46875 " fill-opacity="1" fill-rule="nonzero"/><path fill="#000000" d="M 164.148438 273.230469 C 164.148438 270.3125 161.785156 267.945312 158.871094 267.945312 L 128.074219 267.945312 C 125.160156 267.945312 122.796875 270.3125 122.796875 273.230469 C 122.796875 276.152344 125.160156 278.515625 128.074219 278.515625 L 158.871094 278.515625 C 161.785156 278.515625 164.148438 276.152344 164.148438 273.230469 Z M 164.148438 273.230469 " fill-opacity="1" fill-rule="nonzero"/><g clip-path="url(#f63093e7c2)"><path fill="#000000" d="M 363.273438 322.894531 C 358.804688 316.367188 352.972656 311.015625 346.183594 307.171875 C 349.96875 301.914062 352.015625 295.621094 352.015625 289.011719 C 352.015625 280.695312 348.785156 272.882812 342.914062 267.003906 C 337.042969 261.125 329.234375 257.886719 320.933594 257.886719 C 312.628906 257.886719 304.824219 261.125 298.957031 267.003906 C 297.792969 268.164062 296.738281 269.40625 295.785156 270.710938 C 292.5 267.417969 288.78125 264.582031 284.75 262.292969 C 288.542969 257.035156 290.589844 250.738281 290.589844 244.125 C 290.589844 235.8125 287.355469 227.996094 281.484375 222.117188 C 276.753906 217.382812 270.769531 214.363281 264.277344 213.367188 L 264.277344 10.628906 C 264.277344 7.710938 261.914062 5.34375 259 5.34375 L 7.769531 5.34375 C 4.855469 5.34375 2.492188 7.710938 2.492188 10.628906 L 2.492188 320.953125 C 2.492188 323.871094 4.855469 326.238281 7.769531 326.238281 L 153.128906 326.238281 C 148.640625 334.015625 146.285156 342.808594 146.285156 351.882812 L 146.285156 364.558594 C 146.285156 367.480469 148.648438 369.847656 151.5625 369.847656 L 243.574219 369.847656 C 246.492188 369.847656 248.855469 367.480469 248.855469 364.558594 L 248.855469 351.882812 C 248.855469 342.300781 246.230469 333.046875 241.246094 324.960938 L 277.253906 324.960938 C 272.273438 333.046875 269.648438 342.308594 269.648438 351.882812 L 269.648438 364.558594 C 269.648438 367.480469 272.011719 369.847656 274.925781 369.847656 L 366.9375 369.847656 C 369.855469 369.847656 372.21875 367.480469 372.21875 364.558594 L 372.21875 351.882812 C 372.21875 341.476562 369.125 331.453125 363.273438 322.894531 Z M 320.933594 268.460938 C 332.25 268.460938 341.457031 277.679688 341.457031 289.007812 C 341.457031 300.339844 332.25 309.558594 320.933594 309.558594 C 309.617188 309.558594 300.410156 300.339844 300.410156 289.007812 C 300.410156 277.679688 309.617188 268.460938 320.933594 268.460938 Z M 290.882812 281.007812 C 290.203125 283.585938 289.851562 286.269531 289.851562 289.011719 C 289.851562 295.621094 291.898438 301.917969 295.6875 307.175781 C 292.136719 309.183594 288.851562 311.605469 285.882812 314.386719 L 232.621094 314.386719 C 229.652344 311.601562 226.367188 309.179688 222.816406 307.171875 C 226.605469 301.914062 228.652344 295.621094 228.652344 289.011719 C 228.652344 286.4375 228.339844 283.914062 227.738281 281.476562 C 231.652344 276.601562 236.636719 272.679688 242.273438 270.039062 C 247.332031 273.429688 253.28125 275.25 259.503906 275.25 C 265.730469 275.25 271.675781 273.429688 276.738281 270.039062 C 282.175781 272.589844 287.03125 276.347656 290.882812 281.007812 Z M 177.046875 289.011719 C 177.046875 277.679688 186.253906 268.460938 197.570312 268.460938 C 208.886719 268.460938 218.09375 277.679688 218.09375 289.011719 C 218.09375 300.339844 208.886719 309.5625 197.570312 309.5625 C 186.25 309.5625 177.046875 300.339844 177.046875 289.011719 Z M 280.027344 244.125 C 280.027344 255.457031 270.820312 264.675781 259.503906 264.675781 C 248.1875 264.675781 238.980469 255.457031 238.980469 244.125 C 238.980469 232.792969 248.1875 223.574219 259.503906 223.574219 C 270.820312 223.574219 280.027344 232.792969 280.027344 244.125 Z M 13.050781 15.917969 L 253.71875 15.917969 L 253.71875 213.539062 C 247.621094 214.683594 242.007812 217.628906 237.527344 222.117188 C 231.65625 227.996094 228.421875 235.8125 228.421875 244.125 C 228.421875 250.734375 230.46875 257.03125 234.257812 262.289062 C 230.101562 264.648438 226.285156 267.585938 222.929688 271.003906 C 221.925781 269.589844 220.796875 268.25 219.546875 267 C 213.675781 261.121094 205.871094 257.882812 197.570312 257.882812 C 189.265625 257.882812 181.460938 261.121094 175.589844 267 C 169.71875 272.878906 166.488281 280.695312 166.488281 289.007812 C 166.488281 295.621094 168.53125 301.914062 172.324219 307.171875 C 168.242188 309.484375 164.507812 312.339844 161.207031 315.664062 L 13.050781 315.664062 Z M 238.292969 359.273438 L 156.84375 359.273438 L 156.84375 351.882812 C 156.84375 343.710938 159.246094 335.828125 163.792969 329.085938 C 164.867188 327.496094 166.042969 325.992188 167.3125 324.582031 C 167.371094 324.519531 167.429688 324.453125 167.484375 324.386719 C 171.097656 320.421875 175.453125 317.207031 180.335938 314.921875 C 185.394531 318.3125 191.339844 320.132812 197.566406 320.132812 C 203.792969 320.132812 209.738281 318.3125 214.800781 314.921875 C 221.402344 318.011719 227.042969 322.796875 231.195312 328.871094 C 235.835938 335.660156 238.292969 343.617188 238.292969 351.882812 Z M 361.660156 359.273438 L 280.207031 359.273438 L 280.207031 351.882812 C 280.207031 343.710938 282.613281 335.828125 287.160156 329.085938 C 291.320312 322.921875 297.015625 318.050781 303.699219 314.921875 C 308.761719 318.3125 314.707031 320.132812 320.933594 320.132812 C 327.160156 320.132812 333.105469 318.3125 338.167969 314.921875 C 344.769531 318.011719 350.40625 322.796875 354.558594 328.871094 C 359.203125 335.660156 361.660156 343.617188 361.660156 351.882812 Z M 361.660156 359.273438 " fill-opacity="1" fill-rule="nonzero"/></g></svg>