<svg xmlns="http://www.w3.org/2000/svg" xmlns:xlink="http://www.w3.org/1999/xlink" width="500" zoomAndPan="magnify" viewBox="0 0 375 374.999991" height="500" preserveAspectRatio="xMidYMid meet" version="1.0"><defs><clipPath id="3718854b20"><path d="M 294 332 L 358.761719 332 L 358.761719 373.605469 L 294 373.605469 Z M 294 332 " clip-rule="nonzero"/></clipPath><clipPath id="a81d2d5a2f"><path d="M 131 1.605469 L 213 1.605469 L 213 130 L 131 130 Z M 131 1.605469 " clip-rule="nonzero"/></clipPath><clipPath id="ee29da1341"><path d="M 16.011719 257 L 53 257 L 53 286 L 16.011719 286 Z M 16.011719 257 " clip-rule="nonzero"/></clipPath></defs><path fill="#000000" d="M 61.863281 181.800781 C 43.566406 181.800781 29.769531 190.53125 29.769531 202.109375 C 29.769531 213.683594 43.566406 222.414062 61.863281 222.414062 C 80.164062 222.414062 93.960938 213.683594 93.960938 202.109375 C 93.960938 190.53125 80.164062 181.800781 61.863281 181.800781 Z M 61.863281 210.808594 C 49.585938 210.808594 41.441406 205.574219 41.441406 202.109375 C 41.441406 198.644531 49.585938 193.40625 61.863281 193.40625 C 74.144531 193.40625 82.289062 198.644531 82.289062 202.109375 C 82.289062 205.574219 74.144531 210.808594 61.863281 210.808594 Z M 61.863281 210.808594 " fill-opacity="1" fill-rule="nonzero"/><path fill="#000000" d="M 282.894531 200.898438 C 264.347656 200.898438 250.359375 209.734375 250.359375 221.449219 C 250.359375 233.160156 264.347656 241.996094 282.894531 241.996094 C 301.441406 241.996094 315.429688 233.160156 315.429688 221.449219 C 315.429688 209.734375 301.441406 200.898438 282.894531 200.898438 Z M 282.894531 230.390625 C 270.351562 230.390625 262.03125 225.007812 262.03125 221.449219 C 262.03125 217.886719 270.351562 212.5 282.894531 212.5 C 295.4375 212.5 303.757812 217.886719 303.757812 221.449219 C 303.757812 225.007812 295.4375 230.390625 282.894531 230.390625 Z M 282.894531 230.390625 " fill-opacity="1" fill-rule="nonzero"/><g clip-path="url(#3718854b20)"><path fill="#000000" d="M 326.664062 332.644531 C 308.363281 332.644531 294.566406 341.375 294.566406 352.949219 C 294.566406 364.527344 308.363281 373.257812 326.664062 373.257812 C 344.964844 373.257812 358.761719 364.527344 358.761719 352.949219 C 358.761719 341.375 344.964844 332.644531 326.664062 332.644531 Z M 326.664062 361.652344 C 314.386719 361.652344 306.238281 356.414062 306.238281 352.949219 C 306.238281 349.484375 314.386719 344.25 326.664062 344.25 C 338.941406 344.25 347.089844 349.484375 347.089844 352.949219 C 347.089844 356.414062 338.941406 361.652344 326.664062 361.652344 Z M 326.664062 361.652344 " fill-opacity="1" fill-rule="nonzero"/></g><path fill="#000000" d="M 181.777344 314.351562 L 283.925781 345.847656 C 285.019531 342.058594 286.984375 338.570312 289.667969 335.46875 L 187.523438 303.972656 C 186.429688 307.761719 184.464844 311.25 181.777344 314.351562 Z M 181.777344 314.351562 " fill-opacity="1" fill-rule="nonzero"/><path fill="#000000" d="M 144.78125 276.5625 C 126.484375 276.5625 112.6875 285.292969 112.6875 296.867188 C 112.6875 308.445312 126.484375 317.175781 144.78125 317.175781 C 163.082031 317.175781 176.878906 308.445312 176.878906 296.867188 C 176.878906 285.292969 163.082031 276.5625 144.78125 276.5625 Z M 144.78125 305.570312 C 132.503906 305.570312 124.359375 300.332031 124.359375 296.867188 C 124.359375 293.40625 132.503906 288.167969 144.78125 288.167969 C 157.0625 288.167969 165.207031 293.40625 165.207031 296.867188 C 165.207031 300.332031 157.0625 305.570312 144.78125 305.570312 Z M 144.78125 305.570312 " fill-opacity="1" fill-rule="nonzero"/><path fill="#000000" d="M 119.597656 122.257812 C 119.667969 121.378906 119.78125 120.492188 120.007812 119.585938 L 122.625 109.144531 C 108.378906 112.910156 97.609375 118.941406 97.609375 128.257812 C 97.609375 147.683594 144.382812 152.863281 172.015625 152.863281 C 199.648438 152.863281 246.421875 147.683594 246.421875 128.257812 C 246.421875 118.941406 235.652344 112.90625 221.40625 109.144531 L 224.019531 119.585938 C 224.261719 120.554688 224.332031 121.414062 224.332031 122.222656 C 230.558594 124.367188 234.152344 126.59375 234.730469 128.257812 C 233.171875 132.730469 209.945312 141.261719 172.015625 141.261719 C 133.8125 141.261719 110.527344 132.605469 109.269531 128.355469 C 109.738281 126.6875 113.308594 124.429688 119.597656 122.257812 Z M 119.597656 122.257812 " fill-opacity="1" fill-rule="nonzero"/><g clip-path="url(#a81d2d5a2f)"><path fill="#000000" d="M 141.640625 99.445312 C 138.957031 99.445312 136.625 101.261719 135.976562 103.847656 L 131.339844 122.386719 C 130.902344 124.117188 131.296875 125.953125 132.402344 127.359375 C 133.511719 128.765625 135.207031 129.585938 137 129.585938 L 207.03125 129.585938 C 208.824219 129.585938 210.519531 128.765625 211.628906 127.359375 C 212.734375 125.953125 213.128906 124.117188 212.691406 122.386719 L 208.054688 103.847656 C 207.40625 101.261719 205.074219 99.445312 202.390625 99.445312 L 199.191406 99.445312 C 194.753906 93.589844 192.503906 84.480469 192.503906 72.289062 C 192.503906 58.28125 195.46875 48.332031 201.316406 42.726562 C 203.03125 41.085938 203.570312 38.574219 202.679688 36.382812 C 201.789062 34.1875 199.648438 32.75 197.269531 32.75 L 177.851562 32.75 L 177.851562 27.089844 L 186.058594 27.089844 C 189.28125 27.089844 191.894531 24.492188 191.894531 21.289062 C 191.894531 18.085938 189.28125 15.488281 186.058594 15.488281 L 177.851562 15.488281 L 177.851562 7.753906 C 177.851562 4.550781 175.238281 1.953125 172.015625 1.953125 C 168.792969 1.953125 166.179688 4.550781 166.179688 7.753906 L 166.179688 15.488281 L 157.972656 15.488281 C 154.75 15.488281 152.136719 18.085938 152.136719 21.289062 C 152.136719 24.492188 154.75 27.089844 157.972656 27.089844 L 166.179688 27.089844 L 166.179688 32.75 L 146.761719 32.75 C 144.382812 32.75 142.242188 34.1875 141.351562 36.382812 C 140.460938 38.574219 141 41.085938 142.714844 42.726562 C 148.5625 48.332031 151.527344 58.28125 151.527344 72.289062 C 151.527344 84.480469 149.277344 93.589844 144.839844 99.445312 Z M 186.0625 44.351562 C 182.554688 51.621094 180.832031 60.867188 180.832031 72.289062 C 180.832031 83.316406 182.453125 92.300781 185.71875 99.445312 L 158.3125 99.445312 C 161.578125 92.300781 163.199219 83.316406 163.199219 72.289062 C 163.199219 60.867188 161.476562 51.621094 157.96875 44.351562 Z M 197.828125 111.050781 L 199.566406 117.984375 L 144.464844 117.984375 L 146.203125 111.050781 Z M 197.828125 111.050781 " fill-opacity="1" fill-rule="nonzero"/></g><g clip-path="url(#ee29da1341)"><path fill="#000000" d="M 51.902344 260.070312 C 50.132812 257.394531 46.507812 256.65625 43.820312 258.425781 L 34.875 264.292969 L 25.929688 258.425781 C 23.242188 256.65625 19.617188 257.394531 17.847656 260.070312 C 16.070312 262.746094 16.8125 266.34375 19.5 268.105469 L 24.28125 271.242188 L 19.5 274.378906 C 16.8125 276.144531 16.070312 279.742188 17.847656 282.414062 C 18.964844 284.105469 20.828125 285.023438 22.722656 285.023438 C 23.824219 285.023438 24.941406 284.714844 25.929688 284.0625 L 34.875 278.195312 L 43.820312 284.0625 C 44.808594 284.714844 45.925781 285.023438 47.027344 285.023438 C 48.921875 285.023438 50.785156 284.105469 51.902344 282.414062 C 53.679688 279.742188 52.9375 276.144531 50.246094 274.378906 L 45.46875 271.242188 L 50.246094 268.105469 C 52.9375 266.34375 53.679688 262.746094 51.902344 260.070312 Z M 51.902344 260.070312 " fill-opacity="1" fill-rule="nonzero"/></g><path fill="#000000" d="M 343.207031 267.324219 C 341.429688 264.648438 337.8125 263.90625 335.121094 265.675781 L 326.179688 271.546875 L 317.234375 265.675781 C 314.546875 263.90625 310.921875 264.648438 309.152344 267.324219 C 307.375 269.996094 308.117188 273.59375 310.804688 275.359375 L 315.585938 278.496094 L 310.804688 281.632812 C 308.117188 283.394531 307.375 286.992188 309.152344 289.667969 C 310.273438 291.359375 312.132812 292.273438 314.027344 292.273438 C 315.128906 292.273438 316.246094 291.964844 317.234375 291.3125 L 326.179688 285.445312 L 335.121094 291.3125 C 336.109375 291.964844 337.226562 292.273438 338.328125 292.273438 C 340.226562 292.273438 342.085938 291.359375 343.207031 289.667969 C 344.980469 286.992188 344.238281 283.394531 341.550781 281.632812 L 336.769531 278.496094 L 341.550781 275.359375 C 344.238281 273.59375 344.980469 269.996094 343.207031 267.324219 Z M 343.207031 267.324219 " fill-opacity="1" fill-rule="nonzero"/><path fill="#000000" d="M 270.988281 152.738281 C 269.214844 150.066406 265.59375 149.328125 262.902344 151.09375 L 253.960938 156.960938 L 245.015625 151.09375 C 242.332031 149.328125 238.707031 150.066406 236.933594 152.738281 C 235.15625 155.414062 235.898438 159.011719 238.589844 160.777344 L 243.367188 163.914062 L 238.589844 167.046875 C 235.898438 168.8125 235.15625 172.410156 236.933594 175.085938 C 238.054688 176.777344 239.914062 177.691406 241.808594 177.691406 C 242.910156 177.691406 244.027344 177.382812 245.015625 176.730469 L 253.960938 170.863281 L 262.902344 176.730469 C 263.890625 177.382812 265.007812 177.691406 266.113281 177.691406 C 268.007812 177.691406 269.867188 176.777344 270.988281 175.085938 C 272.761719 172.410156 272.023438 168.8125 269.332031 167.046875 L 264.550781 163.914062 L 269.332031 160.777344 C 272.023438 159.011719 272.761719 155.414062 270.988281 152.738281 Z M 270.988281 152.738281 " fill-opacity="1" fill-rule="nonzero"/><path fill="#000000" d="M 253.730469 245.96875 C 250.011719 243.648438 246.875 240.871094 244.441406 237.730469 L 175.796875 273.941406 C 179.257812 276.425781 182.085938 279.367188 184.214844 282.636719 Z M 253.730469 245.96875 " fill-opacity="1" fill-rule="nonzero"/><path fill="#000000" d="M 238.796875 223.128906 C 238.761719 222.566406 238.6875 222.015625 238.6875 221.449219 C 238.6875 217.996094 239.363281 214.707031 240.625 211.636719 L 105.511719 200.207031 C 105.558594 200.839844 105.632812 201.464844 105.632812 202.109375 C 105.632812 205.480469 104.980469 208.699219 103.769531 211.703125 Z M 238.796875 223.128906 " fill-opacity="1" fill-rule="nonzero"/><path fill="#000000" d="M 129.375 160.734375 L 92.613281 179.007812 C 96.132812 181.492188 99.023438 184.429688 101.195312 187.714844 L 149.871094 163.519531 C 143.390625 162.960938 136.347656 162.082031 129.375 160.734375 Z M 129.375 160.734375 " fill-opacity="1" fill-rule="nonzero"/></svg>