<svg xmlns="http://www.w3.org/2000/svg" xmlns:xlink="http://www.w3.org/1999/xlink" width="500" zoomAndPan="magnify" viewBox="0 0 375 374.999991" height="500" preserveAspectRatio="xMidYMid meet" version="1.0"><defs><clipPath id="c7fed81c0f"><path d="M 218 181 L 368.128906 181 L 368.128906 329.539062 L 218 329.539062 Z M 218 181 " clip-rule="nonzero"/></clipPath><clipPath id="3e05a5aa6e"><path d="M 84 300 L 146 300 L 146 329.539062 L 84 329.539062 Z M 84 300 " clip-rule="nonzero"/></clipPath><clipPath id="f077fad859"><path d="M 108 45.289062 L 299 45.289062 L 299 155 L 108 155 Z M 108 45.289062 " clip-rule="nonzero"/></clipPath></defs><path fill="#000000" d="M 293.253906 287.273438 C 275.714844 287.273438 261.34375 273.113281 261.34375 255.148438 C 261.34375 237.398438 275.714844 223.027344 293.253906 223.027344 C 310.792969 223.027344 325.585938 237.398438 325.585938 255.148438 C 325.585938 273.113281 311.214844 287.273438 293.253906 287.273438 Z M 293.253906 233.59375 C 281.417969 233.59375 271.699219 243.101562 271.699219 255.359375 C 271.699219 267.828125 281.417969 277.339844 293.253906 277.339844 C 305.296875 277.339844 315.230469 267.828125 315.230469 255.359375 C 315.230469 243.101562 305.296875 233.59375 293.253906 233.59375 Z M 293.253906 233.59375 " fill-opacity="1" fill-rule="evenodd"/><g clip-path="url(#c7fed81c0f)"><path fill="#000000" d="M 305.933594 329.539062 L 280.785156 329.539062 C 277.824219 329.539062 275.5 327.214844 275.5 324.257812 L 275.5 312 C 271.910156 310.730469 268.738281 309.253906 265.570312 307.773438 L 257.117188 316.4375 C 255.003906 318.339844 251.832031 318.339844 249.71875 316.4375 L 231.757812 298.898438 C 230.914062 297.839844 230.277344 296.359375 230.277344 295.304688 C 230.277344 294.035156 230.914062 292.554688 231.757812 291.710938 L 240.421875 283.257812 C 238.519531 280.085938 237.464844 276.496094 236.195312 273.324219 L 223.9375 273.324219 C 220.980469 273.324219 218.65625 271 218.65625 268.042969 L 218.65625 242.890625 C 218.65625 239.933594 220.980469 237.609375 223.9375 237.609375 L 236.617188 237.609375 C 237.464844 234.4375 238.941406 230.847656 240.632812 227.675781 L 231.757812 218.800781 C 230.914062 217.953125 230.277344 216.476562 230.277344 215.417969 C 230.277344 214.148438 230.914062 212.671875 231.757812 211.824219 L 249.71875 194.285156 C 251.832031 192.171875 255.003906 192.171875 257.117188 194.285156 L 265.78125 202.527344 C 268.949219 200.625 272.332031 199.144531 275.714844 198.300781 L 275.714844 186.253906 C 275.714844 183.507812 278.039062 181.179688 280.996094 181.179688 L 306.144531 181.179688 C 309.101562 181.179688 311.425781 183.507812 311.425781 186.253906 L 311.425781 198.722656 C 315.019531 199.777344 318.1875 201.257812 321.359375 202.738281 L 330.023438 194.285156 C 331.925781 192.171875 335.09375 192.171875 337.207031 194.285156 L 354.746094 211.824219 C 355.59375 212.671875 356.226562 214.148438 356.226562 215.417969 C 356.226562 216.476562 355.59375 217.953125 354.746094 218.800781 L 346.292969 227.253906 C 347.984375 230.632812 349.464844 234.015625 350.734375 237.398438 L 362.777344 237.398438 C 365.738281 237.398438 368.0625 239.722656 368.0625 242.679688 L 368.0625 267.828125 C 368.0625 270.789062 365.738281 273.113281 362.777344 273.113281 L 350.734375 273.113281 C 349.464844 276.496094 347.984375 280.085938 346.71875 283.046875 L 355.171875 291.5 C 356.015625 292.34375 356.648438 293.824219 356.648438 295.09375 C 356.648438 296.148438 356.015625 297.628906 355.171875 298.472656 L 337.628906 316.015625 C 335.515625 318.128906 332.347656 318.128906 330.234375 316.015625 L 321.78125 307.5625 C 318.824219 309.253906 315.230469 310.519531 311.847656 311.578125 L 311.847656 324.046875 C 311.214844 327.214844 308.890625 329.539062 305.933594 329.539062 Z M 286.066406 319.394531 L 300.859375 319.394531 L 300.859375 308.40625 C 300.859375 306.082031 302.339844 303.96875 304.664062 303.546875 C 310.582031 302.066406 315.230469 299.953125 319.457031 297.417969 C 321.359375 295.9375 324.105469 296.148438 325.796875 297.839844 L 333.828125 305.449219 L 344.183594 295.09375 L 336.363281 287.273438 C 334.671875 285.582031 334.25 283.046875 335.730469 280.933594 C 338.6875 276.496094 340.800781 271.632812 341.855469 266.5625 C 342.492188 264.238281 344.605469 262.546875 346.929688 262.546875 L 357.707031 262.546875 L 357.707031 247.542969 L 346.929688 247.542969 C 344.605469 247.542969 342.492188 245.851562 341.855469 243.527344 C 340.800781 238.453125 338.6875 233.804688 335.730469 229.15625 C 334.671875 227.042969 334.882812 224.503906 336.363281 222.605469 L 344.183594 214.785156 L 333.828125 204.21875 L 325.796875 211.824219 C 324.105469 213.515625 321.359375 213.9375 319.667969 212.671875 C 315.230469 210.132812 310.371094 208.019531 305.085938 206.542969 C 302.761719 205.90625 301.28125 204.003906 301.28125 201.679688 L 301.28125 190.691406 L 286.277344 190.691406 L 286.277344 201.679688 C 286.277344 204.003906 284.800781 205.90625 282.476562 206.542969 C 277.191406 207.808594 272.542969 209.710938 267.894531 212.671875 C 265.78125 213.9375 263.246094 213.515625 261.765625 211.824219 L 253.734375 204.003906 L 243.167969 214.363281 L 250.777344 222.179688 C 252.679688 223.871094 252.890625 226.195312 251.832031 228.308594 C 248.875 233.171875 246.761719 238.242188 245.917969 242.890625 C 245.28125 245.214844 243.167969 246.90625 240.84375 246.90625 L 229.855469 246.90625 L 229.855469 261.914062 L 240.84375 261.914062 C 243.167969 261.914062 245.28125 263.601562 245.917969 265.929688 C 246.972656 271 249.085938 275.859375 251.832031 280.300781 C 252.890625 282.414062 252.679688 284.949219 250.777344 286.425781 L 243.167969 294.035156 L 253.734375 304.601562 L 261.765625 296.785156 C 263.457031 295.09375 265.992188 294.667969 267.894531 295.9375 C 272.542969 298.898438 277.191406 300.796875 282.476562 302.066406 C 284.800781 302.699219 286.277344 304.601562 286.277344 306.925781 L 286.277344 319.394531 Z M 286.066406 319.394531 " fill-opacity="1" fill-rule="evenodd"/></g><path fill="#000000" d="M 147.441406 274.59375 C 144.480469 274.59375 142.15625 272.058594 142.15625 269.308594 C 142.15625 229.789062 151.878906 216.898438 160.332031 205.484375 C 166.882812 196.820312 171.742188 190.058594 171.742188 172.515625 C 171.742188 141.027344 145.960938 115.242188 114.472656 115.242188 C 82.773438 115.242188 56.992188 141.027344 56.992188 172.515625 C 56.992188 190.058594 62.066406 196.820312 68.40625 205.484375 C 76.859375 216.898438 86.578125 229.789062 86.578125 269.308594 C 86.578125 272.058594 84.253906 274.59375 81.296875 274.59375 C 78.335938 274.59375 76.011719 272.058594 76.011719 269.308594 C 76.011719 233.171875 67.769531 222.179688 59.953125 211.613281 C 53.613281 202.738281 46.425781 193.648438 46.425781 172.515625 C 46.425781 135.320312 76.644531 104.886719 114.050781 104.886719 C 151.667969 104.886719 181.675781 135.109375 181.675781 172.515625 C 181.675781 193.648438 175.125 202.738281 168.359375 211.613281 C 160.332031 222.179688 152.300781 233.171875 152.300781 269.308594 C 152.722656 272.058594 150.398438 274.59375 147.441406 274.59375 Z M 147.441406 274.59375 " fill-opacity="1" fill-rule="evenodd"/><path fill="#000000" d="M 74.957031 187.308594 C 71.996094 187.308594 69.671875 184.984375 69.671875 182.027344 C 69.671875 152.4375 93.550781 128.347656 123.136719 128.347656 C 126.097656 128.347656 128.421875 130.671875 128.421875 133.628906 C 128.421875 136.589844 126.097656 138.914062 123.136719 138.914062 C 99.257812 138.914062 79.816406 158.144531 79.816406 182.238281 C 79.816406 184.984375 77.492188 187.308594 74.957031 187.308594 Z M 74.957031 187.308594 " fill-opacity="1" fill-rule="evenodd"/><path fill="#000000" d="M 164.558594 108.269531 C 163.710938 108.269531 162.65625 107.847656 161.808594 107.636719 C 159.484375 106.15625 158.640625 103.199219 159.90625 100.660156 L 168.570312 85.234375 C 170.050781 82.910156 173.011719 82.0625 175.546875 83.332031 C 177.871094 84.8125 178.925781 87.769531 177.660156 90.304688 L 168.785156 105.523438 C 167.9375 107.210938 166.246094 108.269531 164.558594 108.269531 Z M 164.558594 108.269531 " fill-opacity="1" fill-rule="evenodd"/><path fill="#000000" d="M 201.328125 145.042969 C 199.636719 145.042969 197.945312 144.195312 197.101562 142.507812 C 195.621094 140.179688 196.464844 136.800781 199.003906 135.320312 L 214.21875 126.65625 C 216.542969 125.175781 219.921875 126.023438 221.402344 128.769531 C 222.671875 131.09375 221.824219 134.265625 219.289062 135.742188 L 204.074219 144.410156 C 203.230469 144.832031 202.171875 145.042969 201.328125 145.042969 Z M 201.328125 145.042969 " fill-opacity="1" fill-rule="evenodd"/><path fill="#000000" d="M 64.390625 108.269531 C 62.699219 108.269531 60.796875 107.210938 59.953125 105.523438 L 51.289062 90.304688 C 49.808594 87.980469 50.652344 84.8125 53.191406 83.332031 C 55.515625 81.851562 58.894531 82.699219 60.164062 85.234375 L 69.039062 100.660156 C 70.519531 102.984375 69.671875 106.15625 66.925781 107.636719 C 66.082031 108.269531 65.234375 108.269531 64.390625 108.269531 Z M 64.390625 108.269531 " fill-opacity="1" fill-rule="evenodd"/><path fill="#000000" d="M 27.832031 145.042969 C 26.984375 145.042969 25.929688 144.832031 25.082031 144.410156 L 9.867188 135.742188 C 7.542969 134.265625 6.699219 131.304688 7.753906 128.769531 C 9.234375 126.234375 12.191406 125.386719 14.941406 126.65625 L 30.15625 135.320312 C 32.480469 136.800781 33.324219 139.757812 32.058594 142.507812 C 31.210938 143.984375 29.519531 145.042969 27.832031 145.042969 Z M 27.832031 145.042969 " fill-opacity="1" fill-rule="evenodd"/><path fill="#000000" d="M 157.792969 292.980469 C 154.835938 292.980469 152.511719 290.65625 152.511719 287.695312 C 152.511719 284.738281 154.835938 282.414062 157.792969 282.414062 C 159.90625 282.414062 161.597656 280.722656 161.597656 278.398438 C 161.597656 275.859375 159.90625 274.59375 157.792969 274.59375 L 71.152344 274.59375 C 68.828125 274.59375 67.347656 276.285156 67.347656 278.398438 C 67.347656 280.722656 69.039062 282.414062 71.152344 282.414062 C 74.109375 282.414062 76.433594 284.738281 76.433594 287.695312 C 76.433594 290.65625 74.109375 292.980469 71.152344 292.980469 C 63.121094 292.980469 56.992188 286.425781 56.992188 278.609375 C 56.992188 270.789062 63.542969 264.449219 71.152344 264.449219 L 157.792969 264.449219 C 165.613281 264.449219 171.742188 271 171.742188 278.609375 C 172.164062 286.425781 165.613281 292.980469 157.792969 292.980469 Z M 157.792969 292.980469 " fill-opacity="1" fill-rule="evenodd"/><path fill="#000000" d="M 157.792969 311.367188 L 71.152344 311.367188 C 63.121094 311.367188 56.992188 305.027344 56.992188 296.996094 C 56.992188 289.175781 63.542969 283.046875 71.152344 283.046875 L 157.792969 283.046875 C 165.613281 283.046875 171.742188 289.386719 171.742188 296.996094 C 172.164062 304.601562 165.613281 311.367188 157.792969 311.367188 Z M 71.152344 292.980469 C 68.828125 292.980469 67.347656 294.667969 67.347656 296.785156 C 67.347656 299.109375 69.039062 300.796875 71.152344 300.796875 L 157.792969 300.796875 C 159.90625 300.796875 161.597656 299.109375 161.597656 296.785156 C 161.597656 294.457031 159.90625 292.980469 157.792969 292.980469 Z M 71.152344 292.980469 " fill-opacity="1" fill-rule="evenodd"/><g clip-path="url(#3e05a5aa6e)"><path fill="#000000" d="M 121.234375 329.539062 L 107.921875 329.539062 C 95.03125 329.539062 84.464844 318.972656 84.464844 306.082031 C 84.464844 303.125 87 300.796875 89.75 300.796875 C 92.707031 300.796875 95.03125 303.125 95.03125 306.082031 C 95.03125 313.480469 100.949219 319.394531 108.34375 319.394531 L 121.445312 319.394531 C 128.84375 319.394531 134.550781 313.480469 134.550781 306.082031 C 134.550781 303.125 136.875 300.796875 139.832031 300.796875 C 142.789062 300.796875 145.113281 303.125 145.113281 306.082031 C 144.480469 318.972656 134.125 329.539062 121.234375 329.539062 Z M 121.234375 329.539062 " fill-opacity="1" fill-rule="evenodd"/></g><path fill="#000000" d="M 114.472656 274.59375 C 111.515625 274.59375 109.191406 272.058594 109.191406 269.308594 L 109.191406 217.109375 C 109.191406 215.417969 110.035156 213.515625 111.726562 212.671875 L 132.222656 201.046875 C 134.550781 199.566406 137.929688 200.414062 139.410156 202.738281 C 140.675781 205.0625 139.832031 208.234375 137.507812 209.710938 L 119.757812 220.066406 L 119.757812 269.519531 C 119.757812 272.058594 117.433594 274.59375 114.472656 274.59375 Z M 114.472656 274.59375 " fill-opacity="1" fill-rule="evenodd"/><path fill="#000000" d="M 114.472656 222.179688 C 113.628906 222.179688 112.570312 221.757812 111.726562 221.546875 L 91.648438 209.710938 C 89.324219 208.234375 88.269531 205.0625 89.75 202.738281 C 91.226562 200.414062 94.609375 199.566406 96.933594 201.046875 L 117.007812 212.671875 C 119.332031 214.148438 120.179688 217.320312 118.910156 219.644531 C 117.855469 221.125 116.164062 222.179688 114.472656 222.179688 Z M 114.472656 222.179688 " fill-opacity="1" fill-rule="evenodd"/><g clip-path="url(#f077fad859)"><path fill="#000000" d="M 293.253906 154.339844 C 290.292969 154.339844 287.96875 152.015625 287.96875 149.269531 L 287.96875 71.074219 C 287.96875 62.410156 280.996094 55.433594 272.542969 55.433594 L 135.183594 55.433594 C 126.519531 55.433594 119.332031 62.410156 119.332031 71.074219 L 119.332031 110.59375 C 119.332031 113.339844 117.007812 115.878906 114.050781 115.878906 C 111.304688 115.878906 108.765625 113.339844 108.765625 110.59375 L 108.765625 71.074219 C 108.765625 56.703125 120.601562 45.289062 134.972656 45.289062 L 272.332031 45.289062 C 286.492188 45.289062 298.113281 56.703125 298.113281 71.074219 L 298.113281 149.480469 C 298.535156 152.015625 296.210938 154.339844 293.253906 154.339844 Z M 293.253906 154.339844 " fill-opacity="1" fill-rule="evenodd"/></g><path fill="#000000" d="M 293.253906 154.339844 C 292.195312 154.339844 290.71875 153.917969 289.871094 153.074219 L 264.722656 127.710938 C 262.609375 125.8125 262.609375 122.429688 264.722656 120.527344 C 266.625 118.414062 270.007812 118.414062 271.910156 120.527344 L 293.253906 141.871094 L 314.597656 120.527344 C 316.710938 118.414062 319.878906 118.414062 321.992188 120.527344 C 324.105469 122.429688 324.105469 125.8125 321.992188 127.710938 L 296.84375 153.074219 C 296 153.917969 294.730469 154.339844 293.253906 154.339844 Z M 293.253906 154.339844 " fill-opacity="1" fill-rule="evenodd"/></svg>