<svg xmlns="http://www.w3.org/2000/svg" xmlns:xlink="http://www.w3.org/1999/xlink" width="500" zoomAndPan="magnify" viewBox="0 0 375 374.999991" height="500" preserveAspectRatio="xMidYMid meet" version="1.0"><defs><clipPath id="bae635380a"><path d="M 3 23.210938 L 370 23.210938 L 370 351.710938 L 3 351.710938 Z M 3 23.210938 " clip-rule="nonzero"/></clipPath></defs><g clip-path="url(#bae635380a)"><path fill="#000000" d="M 78.039062 266.566406 C 75.765625 228.210938 64.820312 213.792969 56.460938 199.003906 C 50.226562 187.972656 45.273438 176.761719 45.273438 157.3125 C 45.273438 109.050781 84.382812 69.929688 132.628906 69.929688 C 180.875 69.929688 219.984375 109.050781 219.984375 157.3125 C 219.984375 158.035156 219.976562 158.746094 219.964844 159.445312 L 223.828125 159.445312 C 226.316406 159.445312 228.546875 160.976562 229.4375 163.300781 C 229.4375 163.300781 232.976562 172.503906 232.972656 172.503906 C 237.859375 173.914062 242.566406 175.863281 247.019531 178.328125 L 256.027344 174.320312 C 258.296875 173.3125 260.957031 173.804688 262.714844 175.5625 L 276.632812 189.484375 C 278.390625 191.242188 278.882812 193.898438 277.878906 196.167969 C 277.878906 196.167969 273.886719 205.179688 273.886719 205.179688 C 276.351562 209.640625 278.304688 214.355469 279.714844 219.257812 L 288.898438 222.792969 C 291.214844 223.6875 292.746094 225.917969 292.746094 228.402344 L 292.746094 248.09375 C 292.746094 250.582031 291.214844 252.8125 288.898438 253.703125 C 288.898438 253.703125 279.710938 257.242188 279.710938 257.238281 C 278.300781 262.125 276.339844 266.835938 273.882812 271.289062 L 277.878906 280.308594 C 278.882812 282.578125 278.390625 285.234375 276.632812 286.992188 L 262.714844 300.914062 C 260.960938 302.667969 258.304688 303.164062 256.035156 302.160156 C 256.035156 302.160156 247.027344 298.167969 247.03125 298.167969 C 242.582031 300.632812 237.863281 302.585938 232.972656 303.992188 L 229.4375 313.179688 C 228.542969 315.5 226.316406 317.03125 223.828125 317.03125 L 204.144531 317.03125 C 201.65625 317.03125 199.429688 315.5 198.535156 313.179688 C 198.535156 313.179688 195 303.992188 195 303.996094 C 190.105469 302.582031 185.390625 300.621094 180.933594 298.164062 L 173.996094 301.238281 L 173.996094 306.066406 C 173.996094 314.683594 168.242188 322.015625 160.417969 324.445312 L 160.417969 332.515625 C 160.417969 343.070312 151.765625 351.753906 141.214844 351.753906 L 124.042969 351.753906 C 113.496094 351.753906 104.8125 343.066406 104.8125 332.515625 L 104.8125 324.441406 C 96.980469 322.007812 91.261719 314.679688 91.261719 306.066406 L 91.261719 297.886719 C 83.601562 295.351562 78.039062 288.105469 78.039062 279.613281 Z M 218.964844 171.464844 C 217.269531 182.421875 213.613281 190.382812 209.273438 198.152344 C 210.816406 197.972656 212.386719 197.878906 213.976562 197.878906 C 236.269531 197.878906 254.34375 215.941406 254.34375 238.238281 C 254.34375 260.535156 236.269531 278.617188 213.976562 278.617188 C 203.699219 278.617188 194.320312 274.773438 187.199219 268.445312 L 187.1875 279.613281 C 187.1875 282.246094 186.65625 284.757812 185.691406 287.046875 C 190.429688 289.792969 195.539062 291.847656 200.886719 293.117188 C 202.820312 293.574219 204.398438 294.953125 205.109375 296.804688 L 208.269531 305.011719 C 208.269531 305.011719 219.703125 305.011719 219.703125 305.011719 L 222.863281 296.804688 C 223.574219 294.957031 225.152344 293.574219 227.082031 293.117188 C 232.878906 291.738281 238.425781 289.449219 243.492188 286.316406 C 245.175781 285.273438 247.269531 285.128906 249.082031 285.933594 C 249.082031 285.933594 257.132812 289.5 257.132812 289.5 L 265.222656 281.40625 L 261.65625 273.355469 C 260.859375 271.550781 260.996094 269.464844 262.027344 267.78125 C 265.144531 262.691406 267.460938 257.152344 268.839844 251.347656 C 269.296875 249.417969 270.675781 247.839844 272.527344 247.128906 L 280.730469 243.96875 C 280.730469 243.96875 280.730469 232.527344 280.730469 232.527344 L 272.527344 229.371094 C 270.675781 228.65625 269.296875 227.078125 268.839844 225.148438 C 267.460938 219.328125 265.167969 213.792969 262.035156 208.707031 C 260.996094 207.023438 260.855469 204.933594 261.65625 203.121094 L 265.222656 195.070312 C 265.222656 195.070312 257.136719 186.980469 257.136719 186.980469 L 249.089844 190.558594 C 247.28125 191.367188 245.1875 191.226562 243.5 190.183594 C 238.414062 187.050781 232.882812 184.757812 227.082031 183.378906 C 225.152344 182.921875 223.574219 181.539062 222.859375 179.6875 C 222.859375 179.6875 219.703125 171.464844 219.703125 171.464844 Z M 200.710938 213.1875 C 195.851562 222.398438 191.246094 233.726562 188.742188 251.152344 C 193.433594 260.320312 202.96875 266.597656 213.976562 266.597656 C 229.632812 266.597656 242.328125 253.898438 242.328125 238.238281 C 242.328125 222.578125 229.632812 209.898438 213.976562 209.898438 C 209.183594 209.898438 204.667969 211.085938 200.710938 213.1875 Z M 175.179688 272.398438 L 90.054688 272.398438 L 90.054688 279.613281 C 90.054688 283.585938 93.300781 286.832031 97.269531 286.832031 L 167.988281 286.832031 C 171.941406 286.832031 175.171875 283.582031 175.171875 279.613281 Z M 148.402344 325.300781 L 116.828125 325.300781 L 116.828125 332.515625 C 116.828125 336.476562 120.085938 339.734375 124.042969 339.734375 L 141.214844 339.734375 C 145.167969 339.734375 148.402344 336.472656 148.402344 332.515625 Z M 103.277344 298.851562 L 103.277344 306.066406 C 103.277344 310.039062 106.519531 313.28125 110.492188 313.28125 L 154.765625 313.28125 C 158.722656 313.28125 161.980469 310.039062 161.980469 306.066406 L 161.980469 298.851562 Z M 152.675781 260.378906 C 165.734375 260.378906 175.613281 260.378906 175.613281 260.378906 C 178.203125 229.464844 186.273438 213.898438 193.855469 200.808594 C 201.070312 188.359375 207.96875 178.460938 207.96875 157.3125 C 207.96875 115.691406 174.238281 81.949219 132.628906 81.949219 C 91.019531 81.949219 57.289062 115.691406 57.289062 157.3125 C 57.289062 178.460938 64.1875 188.359375 71.402344 200.808594 C 78.984375 213.898438 87.054688 229.464844 89.644531 260.378906 C 89.644531 260.378906 99.523438 260.378906 112.582031 260.378906 L 112.582031 182.816406 L 99.667969 182.816406 C 85.980469 182.816406 74.769531 171.605469 74.769531 157.910156 C 74.769531 144.183594 85.980469 132.976562 99.667969 132.976562 C 113.390625 132.976562 124.597656 144.1875 124.597656 157.910156 L 124.597656 170.800781 L 140.660156 170.800781 L 140.660156 157.910156 C 140.660156 144.1875 151.867188 132.976562 165.585938 132.976562 C 179.273438 132.976562 190.488281 144.183594 190.488281 157.910156 C 190.488281 171.605469 179.277344 182.816406 165.585938 182.816406 L 152.675781 182.816406 Z M 124.597656 260.378906 C 129.894531 260.378906 135.363281 260.378906 140.660156 260.378906 L 140.660156 182.816406 L 124.597656 182.816406 Z M 112.582031 170.800781 L 112.582031 157.910156 C 112.582031 150.800781 106.777344 144.996094 99.667969 144.996094 C 92.582031 144.996094 86.785156 150.804688 86.785156 157.910156 C 86.785156 164.996094 92.585938 170.800781 99.667969 170.800781 Z M 152.675781 170.800781 L 165.585938 170.800781 C 172.671875 170.800781 178.472656 164.996094 178.472656 157.910156 C 178.472656 150.804688 172.671875 144.996094 165.585938 144.996094 C 158.480469 144.996094 152.675781 150.800781 152.675781 157.910156 Z M 138.636719 48.425781 C 138.636719 51.742188 135.945312 54.433594 132.628906 54.433594 C 129.3125 54.433594 126.621094 51.742188 126.621094 48.425781 L 126.621094 29.253906 C 126.621094 25.9375 129.3125 23.242188 132.628906 23.242188 C 135.945312 23.242188 138.636719 25.9375 138.636719 29.253906 Z M 76.46875 61.867188 C 78.125 64.738281 77.136719 68.417969 74.261719 70.074219 C 71.390625 71.730469 67.714844 70.742188 66.058594 67.867188 L 56.488281 51.261719 C 54.832031 48.386719 55.820312 44.710938 58.695312 43.054688 C 61.566406 41.398438 65.242188 42.386719 66.898438 45.257812 Z M 29.371094 104.605469 C 32.238281 106.265625 33.222656 109.945312 31.566406 112.816406 C 29.90625 115.6875 26.226562 116.671875 23.355469 115.011719 L 6.753906 105.410156 C 3.882812 103.753906 2.898438 100.074219 4.558594 97.199219 C 6.21875 94.328125 9.898438 93.347656 12.765625 95.007812 Z M 199.167969 67.875 C 197.507812 70.746094 193.832031 71.730469 190.960938 70.070312 C 188.089844 68.410156 187.105469 64.730469 188.765625 61.859375 L 198.363281 45.253906 C 200.019531 42.382812 203.699219 41.398438 206.570312 43.058594 C 209.441406 44.71875 210.421875 48.394531 208.765625 51.265625 Z M 241.902344 115.007812 C 239.035156 116.667969 235.355469 115.6875 233.695312 112.820312 C 232.03125 109.949219 233.015625 106.269531 235.882812 104.605469 L 252.457031 95.007812 C 255.328125 93.347656 259.007812 94.328125 260.667969 97.199219 C 262.328125 100.066406 261.347656 103.746094 258.480469 105.410156 Z M 304.699219 148.425781 L 304.699219 161.773438 C 304.699219 170.273438 297.800781 177.171875 289.304688 177.171875 C 280.804688 177.171875 273.90625 170.273438 273.90625 161.773438 L 273.90625 148.425781 C 269.136719 148.429688 264.425781 146.230469 261.410156 142.078125 C 256.417969 135.203125 257.941406 125.5625 264.816406 120.566406 L 280.253906 109.347656 C 285.648438 105.425781 292.957031 105.425781 298.351562 109.347656 L 313.789062 120.566406 C 320.664062 125.5625 322.1875 135.203125 317.195312 142.078125 C 314.179688 146.230469 309.46875 148.429688 304.699219 148.425781 Z M 302.753906 135.761719 C 304.261719 136.855469 306.378906 136.523438 307.472656 135.011719 C 308.570312 133.503906 308.234375 131.386719 306.726562 130.289062 L 291.289062 119.070312 C 290.105469 118.210938 288.5 118.210938 287.316406 119.070312 L 271.878906 130.289062 C 270.371094 131.386719 270.035156 133.503906 271.132812 135.011719 C 272.226562 136.523438 274.34375 136.855469 275.851562 135.761719 L 276.382812 135.375 C 278.210938 134.046875 280.628906 133.855469 282.644531 134.882812 C 284.65625 135.90625 285.921875 137.976562 285.921875 140.234375 L 285.921875 161.773438 C 285.921875 163.640625 287.4375 165.15625 289.304688 165.15625 C 291.167969 165.15625 292.683594 163.640625 292.683594 161.773438 L 292.683594 140.234375 C 292.683594 137.976562 293.949219 135.90625 295.960938 134.882812 C 297.976562 133.855469 300.394531 134.046875 302.222656 135.375 M 354.34375 207.171875 L 354.34375 220.519531 C 354.34375 229.019531 347.445312 235.921875 338.949219 235.921875 C 330.453125 235.921875 323.554688 229.019531 323.554688 220.519531 L 323.554688 207.171875 C 318.78125 207.179688 314.074219 204.976562 311.058594 200.824219 C 306.0625 193.949219 307.589844 184.308594 314.464844 179.316406 L 329.902344 168.09375 C 335.296875 164.175781 342.601562 164.175781 348 168.09375 L 363.4375 179.316406 C 370.308594 184.308594 371.835938 193.949219 366.839844 200.824219 C 363.824219 204.976562 359.117188 207.179688 354.34375 207.171875 Z M 352.398438 194.507812 C 353.910156 195.605469 356.023438 195.269531 357.121094 193.757812 C 358.21875 192.25 357.882812 190.136719 356.371094 189.039062 L 340.9375 177.820312 C 339.75 176.957031 338.148438 176.957031 336.964844 177.820312 L 321.527344 189.039062 C 320.015625 190.136719 319.683594 192.25 320.777344 193.757812 C 321.875 195.269531 323.988281 195.605469 325.5 194.507812 L 326.03125 194.121094 C 327.859375 192.792969 330.277344 192.601562 332.289062 193.628906 C 334.304688 194.652344 335.570312 196.722656 335.570312 198.984375 L 335.570312 220.519531 C 335.570312 222.386719 337.085938 223.902344 338.949219 223.902344 C 340.816406 223.902344 342.328125 222.386719 342.328125 220.519531 L 342.328125 198.984375 C 342.328125 196.722656 343.597656 194.652344 345.609375 193.628906 C 347.621094 192.601562 350.039062 192.792969 351.867188 194.121094 " fill-opacity="1" fill-rule="evenodd"/></g></svg>